<svg xmlns="http://www.w3.org/2000/svg" viewBox="0 0 128 128" role="img" aria-label="Eclipse Knights rank insignia: blade.">
<defs>
  <radialGradient id="fld" cx="50%" cy="42%" r="70%">
    <stop offset="0%" stop-color="#0d1830"/><stop offset="60%" stop-color="#070c1c"/><stop offset="100%" stop-color="#03050c"/>
  </radialGradient>
  <radialGradient id="disc" cx="46%" cy="42%" r="62%">
    <stop offset="0%" stop-color="#0a1122"/><stop offset="70%" stop-color="#05070f"/><stop offset="100%" stop-color="#020308"/>
  </radialGradient>
  <radialGradient id="cor" cx="50%" cy="50%" r="50%">
    <stop offset="0%" stop-color="#ffffff"/><stop offset="34%" stop-color="#cfeeff"/><stop offset="64%" stop-color="#66b8f2"/><stop offset="100%" stop-color="#1b4f96" stop-opacity="0"/>
  </radialGradient>
  <radialGradient id="corGrey" cx="50%" cy="50%" r="50%">
    <stop offset="0%" stop-color="#e7ecf4"/><stop offset="45%" stop-color="#9aa6bc"/><stop offset="100%" stop-color="#4a5568" stop-opacity="0"/>
  </radialGradient>
  <linearGradient id="steel" x1="0" y1="0" x2="1" y2="0">
    <stop offset="0%" stop-color="#59647a"/><stop offset="50%" stop-color="#e6ecf6"/><stop offset="100%" stop-color="#4a5568"/>
  </linearGradient>
  <linearGradient id="gold" x1="0" y1="0" x2="0" y2="1">
    <stop offset="0%" stop-color="#f4e9c2"/><stop offset="50%" stop-color="#d3ad55"/><stop offset="100%" stop-color="#8a6a26"/>
  </linearGradient>
  <filter id="glow" x="-50%" y="-50%" width="200%" height="200%">
    <feGaussianBlur stdDeviation="1.6" result="b"/><feMerge><feMergeNode in="b"/><feMergeNode in="SourceGraphic"/></feMerge>
  </filter>
  <filter id="soft" x="-70%" y="-70%" width="240%" height="240%"><feGaussianBlur stdDeviation="5"/></filter>
</defs>
<circle cx="64" cy="60" r="52" fill="#6cc6ff" opacity="0.20" filter="url(#soft)"/>
<g transform="rotate(33 64 60)"><g>
      <path d="M64 8 L66.4 30 L65.2 84 L62.8 84 L61.6 30 Z" fill="url(#steel)" stroke="#2b3242" stroke-width="0.5"/>
      <rect x="55" y="83" width="18" height="3.2" rx="1.2" fill="url(#gold)"/>
      <rect x="62.6" y="86" width="2.8" height="26" rx="1.2" fill="#26304a"/>
      <circle cx="64" cy="115" r="4" fill="url(#gold)"/>
    </g></g><g transform="rotate(-33 64 60)"><g>
      <path d="M64 8 L66.4 30 L65.2 84 L62.8 84 L61.6 30 Z" fill="url(#steel)" stroke="#2b3242" stroke-width="0.5"/>
      <rect x="55" y="83" width="18" height="3.2" rx="1.2" fill="url(#gold)"/>
      <rect x="62.6" y="86" width="2.8" height="26" rx="1.2" fill="#26304a"/>
      <circle cx="64" cy="115" r="4" fill="url(#gold)"/>
    </g></g>
<circle cx="64" cy="60" r="55" fill="#4a8fe0"/>
<circle cx="64" cy="60" r="51" fill="url(#fld)"/>
<circle cx="64" cy="60" r="49" fill="none" stroke="#6cc6ff" stroke-width="0.8" opacity="0.5"/>
<circle cx="64" cy="60" r="32" fill="url(#cor)" opacity="0.4" filter="url(#soft)"/>
<g fill="url(#cor)" filter="url(#glow)"><path d="M 63.01 41.03 L 64.00 26.00 L 64.99 41.03 Z"/>
<path d="M 71.34 42.47 L 74.62 37.94 L 73.13 43.34 Z"/>
<path d="M 78.21 47.39 L 87.92 40.92 L 79.45 48.95 Z"/>
<path d="M 82.28 54.81 L 85.88 55.01 L 82.72 56.75 Z"/>
<path d="M 82.72 63.25 L 97.15 67.57 L 82.28 65.19 Z"/>
<path d="M 79.45 71.05 L 83.67 75.69 L 78.21 72.61 Z"/>
<path d="M 73.13 76.66 L 76.98 86.96 L 71.34 77.53 Z"/>
<path d="M 64.99 78.97 L 64.00 81.76 L 63.01 78.97 Z"/>
<path d="M 56.66 77.53 L 49.25 90.63 L 54.87 76.66 Z"/>
<path d="M 49.79 72.61 L 44.86 75.26 L 48.55 71.05 Z"/>
<path d="M 45.72 65.19 L 34.17 66.81 L 45.28 63.25 Z"/>
<path d="M 45.28 56.75 L 42.12 55.01 L 45.72 54.81 Z"/>
<path d="M 48.55 48.95 L 37.42 38.80 L 49.79 47.39 Z"/>
<path d="M 54.87 43.34 L 53.08 37.33 L 56.66 42.47 Z"/></g>
<circle cx="64" cy="60" r="22" fill="none" stroke="url(#cor)" stroke-width="4" filter="url(#glow)"/>
<circle cx="64" cy="60" r="22" fill="none" stroke="#eaf6ff" stroke-width="1.3"/>
<circle cx="64" cy="60" r="21" fill="url(#disc)"/>

<path d="M 55 92 L 64 98 L 73 92" fill="none" stroke="#dff0ff" stroke-width="2.4" stroke-linecap="round" stroke-linejoin="round"/>
<path d="M 55 98 L 64 104 L 73 98" fill="none" stroke="#dff0ff" stroke-width="2.4" stroke-linecap="round" stroke-linejoin="round"/>
</svg>