<svg xmlns="http://www.w3.org/2000/svg" viewBox="0 0 128 128" role="img" aria-label="Eclipse Knights rank insignia: squire.">
<defs>
  <radialGradient id="fld" cx="50%" cy="42%" r="70%">
    <stop offset="0%" stop-color="#0d1830"/><stop offset="60%" stop-color="#070c1c"/><stop offset="100%" stop-color="#03050c"/>
  </radialGradient>
  <radialGradient id="disc" cx="46%" cy="42%" r="62%">
    <stop offset="0%" stop-color="#0a1122"/><stop offset="70%" stop-color="#05070f"/><stop offset="100%" stop-color="#020308"/>
  </radialGradient>
  <radialGradient id="cor" cx="50%" cy="50%" r="50%">
    <stop offset="0%" stop-color="#ffffff"/><stop offset="34%" stop-color="#cfeeff"/><stop offset="64%" stop-color="#66b8f2"/><stop offset="100%" stop-color="#1b4f96" stop-opacity="0"/>
  </radialGradient>
  <radialGradient id="corGrey" cx="50%" cy="50%" r="50%">
    <stop offset="0%" stop-color="#e7ecf4"/><stop offset="45%" stop-color="#9aa6bc"/><stop offset="100%" stop-color="#4a5568" stop-opacity="0"/>
  </radialGradient>
  <linearGradient id="steel" x1="0" y1="0" x2="1" y2="0">
    <stop offset="0%" stop-color="#59647a"/><stop offset="50%" stop-color="#e6ecf6"/><stop offset="100%" stop-color="#4a5568"/>
  </linearGradient>
  <linearGradient id="gold" x1="0" y1="0" x2="0" y2="1">
    <stop offset="0%" stop-color="#f4e9c2"/><stop offset="50%" stop-color="#d3ad55"/><stop offset="100%" stop-color="#8a6a26"/>
  </linearGradient>
  <filter id="glow" x="-50%" y="-50%" width="200%" height="200%">
    <feGaussianBlur stdDeviation="1.6" result="b"/><feMerge><feMergeNode in="b"/><feMergeNode in="SourceGraphic"/></feMerge>
  </filter>
  <filter id="soft" x="-70%" y="-70%" width="240%" height="240%"><feGaussianBlur stdDeviation="5"/></filter>
</defs>
<circle cx="64" cy="60" r="52" fill="#7fb3e6" opacity="0.20" filter="url(#soft)"/>

<circle cx="64" cy="60" r="55" fill="#3f6aad"/>
<circle cx="64" cy="60" r="51" fill="url(#fld)"/>
<circle cx="64" cy="60" r="49" fill="none" stroke="#7fb3e6" stroke-width="0.8" opacity="0.5"/>
<circle cx="64" cy="60" r="30" fill="url(#cor)" opacity="0.28" filter="url(#soft)"/>
<path d="M 44.06 50.70 A 22 22 0 0 1 80.85 45.86" fill="none" stroke="url(#cor)" stroke-width="4" filter="url(#glow)"/>
<path d="M 44.06 50.70 A 22 22 0 0 1 80.85 45.86" fill="none" stroke="#eaf6ff" stroke-width="1.3"/>
<circle cx="64" cy="60" r="21" fill="url(#disc)"/>

<path d="M 55 96 L 64 102 L 73 96" fill="none" stroke="#bfe0ff" stroke-width="2.4" stroke-linecap="round" stroke-linejoin="round"/>
</svg>